# xmcd
#
# Track frame offsets:
# 182
# 17732
# 30195
# 46575
# 61047
# 77992
# 92532
# 104490
# 120257
# 132692
# 149762
# 161690
# 176085
# 185417
# 206232
# 219530
# 241580
# 259467
# 283165
#
# Disc length: 4060 seconds
#
#
# Revision: 0
# Processed by: cddbd v1.5.1PL0 Copyright (c) Steve Scherf et al.
# Submitted via: FreeRIP 2.70 
#
DISCID=120fda13
DTITLE=Knallinger - Total durchgenkallt Live
DYEAR=2003
DGENRE=Classical
TTITLE0=BGS Kamercheck
TTITLE1=Mobbingzentrale
TTITLE2=Nussknacker
TTITLE3=Pflasterportrait
TTITLE4=Telefontrainer
TTITLE5=Staukollaps
TTITLE6=Tafelsilber
TTITLE7=Tunnerl
TTITLE8=Beerdigungsrede
TTITLE9=Bertani Live
TTITLE10=Queen Live
TTITLE11=Chinarestaurant Live
TTITLE12=Telegate Live
TTITLE13=DJ Dieter
TTITLE14=Bert Motivationstrainer Live
TTITLE15=Fahrlehrer Kratzer
TTITLE16=Friedrich
TTITLE17=Mario Allein zu Hause
TTITLE18=Mario Happy End
EXTD=
EXTT0=
EXTT1=
EXTT2=
EXTT3=
EXTT4=
EXTT5=
EXTT6=
EXTT7=
EXTT8=
EXTT9=
EXTT10=
EXTT11=
EXTT12=
EXTT13=
EXTT14=
EXTT15=
EXTT16=
EXTT17=
EXTT18=
PLAYORDER=
